REM DIRINDEX 1\2,1\3,1\4,1\5
REM DIRNAME "folder01","folder02","folder03","folder04","folder05"
TITLE ""
FILE "1Q_t_1820-1829.mp3" MP3
  TRACK 01 AUDIO
    TITLE "3:cjc172_6459"
    INDEX 01 00:00:00
  TRACK 02 AUDIO
    TITLE "0:"
    INDEX 01 00:01:33
  TRACK 03 AUDIO
    TITLE "4:cjc172_6460"
    INDEX 01 00:01:43
  TRACK 04 AUDIO
    TITLE "0:"
    INDEX 01 00:03:05
  TRACK 05 AUDIO
    TITLE "5:cjc172_6461"
    INDEX 01 00:03:13
  TRACK 06 AUDIO
    TITLE "0:"
    INDEX 01 00:08:47
  TRACK 07 AUDIO
    TITLE "3:cjc172_6462"
    INDEX 01 00:09:19
  TRACK 08 AUDIO
    TITLE "0:"
    INDEX 01 00:10:42
  TRACK 09 AUDIO
    TITLE "4:cjc172_6463"
    INDEX 01 00:10:52
  TRACK 10 AUDIO
    TITLE "0:"
    INDEX 01 00:14:14
  TRACK 11 AUDIO
    TITLE "5:cjc172_6464"
    INDEX 01 00:14:24
  TRACK 12 AUDIO
    TITLE "0:"
    INDEX 01 00:18:55
  TRACK 13 AUDIO
    TITLE "3:cjc172_6465"
    INDEX 01 00:19:31
  TRACK 14 AUDIO
    TITLE "0:"
    INDEX 01 00:20:48
  TRACK 15 AUDIO
    TITLE "4:cjc172_6466"
    INDEX 01 00:20:58
  TRACK 16 AUDIO
    TITLE "0:"
    INDEX 01 00:22:22
  TRACK 17 AUDIO
    TITLE "5:cjc172_6467"
    INDEX 01 00:22:28
  TRACK 18 AUDIO
    TITLE "0:"
    INDEX 01 00:26:66
  TRACK 19 AUDIO
    TITLE "3:cjc172_6468"
    INDEX 01 00:27:39
  TRACK 20 AUDIO
    TITLE "0:"
    INDEX 01 00:28:38
  TRACK 21 AUDIO
    TITLE "4:cjc172_6469"
    INDEX 01 00:28:48
  TRACK 22 AUDIO
    TITLE "0:"
    INDEX 01 00:31:17
  TRACK 23 AUDIO
    TITLE "5:cjc172_6470"
    INDEX 01 00:31:25
  TRACK 24 AUDIO
    TITLE "0:"
    INDEX 01 00:35:65
  TRACK 25 AUDIO
    TITLE "3:cjc172_6471"
    INDEX 01 00:36:37
  TRACK 26 AUDIO
    TITLE "0:"
    INDEX 01 00:37:47
  TRACK 27 AUDIO
    TITLE "4:cjc172_6472"
    INDEX 01 00:37:57
  TRACK 28 AUDIO
    TITLE "0:"
    INDEX 01 00:39:59
  TRACK 29 AUDIO
    TITLE "5:cjc172_6473"
    INDEX 01 00:39:69
  TRACK 30 AUDIO
    TITLE "0:"
    INDEX 01 00:44:02
  TRACK 31 AUDIO
    TITLE "3:cjc172_6474"
    INDEX 01 00:44:47
  TRACK 32 AUDIO
    TITLE "0:"
    INDEX 01 00:45:62
  TRACK 33 AUDIO
    TITLE "4:cjc172_6475"
    INDEX 01 00:45:70
  TRACK 34 AUDIO
    TITLE "0:"
    INDEX 01 00:47:18
  TRACK 35 AUDIO
    TITLE "5:cjc172_6476"
    INDEX 01 00:47:27
  TRACK 36 AUDIO
    TITLE "0:"
    INDEX 01 00:52:35
  TRACK 37 AUDIO
    TITLE "3:cjc172_6477"
    INDEX 01 00:53:09
  TRACK 38 AUDIO
    TITLE "0:"
    INDEX 01 00:54:06
  TRACK 39 AUDIO
    TITLE "4:cjc172_6478"
    INDEX 01 00:54:16
  TRACK 40 AUDIO
    TITLE "0:"
    INDEX 01 00:55:62
  TRACK 41 AUDIO
    TITLE "5:cjc172_6479"
    INDEX 01 00:55:70
  TRACK 42 AUDIO
    TITLE "0:"
    INDEX 01 01:00:50
  TRACK 43 AUDIO
    TITLE "3:cjc172_6480"
    INDEX 01 01:01:20
  TRACK 44 AUDIO
    TITLE "0:"
    INDEX 01 01:02:35
  TRACK 45 AUDIO
    TITLE "4:cjc172_6481"
    INDEX 01 01:02:45
  TRACK 46 AUDIO
    TITLE "0:"
    INDEX 01 01:04:38
  TRACK 47 AUDIO
    TITLE "5:cjc172_6482"
    INDEX 01 01:04:46
  TRACK 48 AUDIO
    TITLE "0:"
    INDEX 01 01:09:10
  TRACK 49 AUDIO
    TITLE "3:cjc172_6483"
    INDEX 01 01:09:55
  TRACK 50 AUDIO
    TITLE "0:"
    INDEX 01 01:11:10
  TRACK 51 AUDIO
    TITLE "4:cjc172_6484"
    INDEX 01 01:11:20
  TRACK 52 AUDIO
    TITLE "0:"
    INDEX 01 01:15:02
  TRACK 53 AUDIO
    TITLE "5:cjc172_6485"
    INDEX 01 01:15:10
  TRACK 54 AUDIO
    TITLE "0:"
    INDEX 01 01:20:37
  TRACK 55 AUDIO
    TITLE "3:cjc172_6486"
    INDEX 01 01:21:09
  TRACK 56 AUDIO
    TITLE "0:"
    INDEX 01 01:22:30
  TRACK 57 AUDIO
    TITLE "4:cjc172_6487"
    INDEX 01 01:22:40
  TRACK 58 AUDIO
    TITLE "0:"
    INDEX 01 01:24:03
  TRACK 59 AUDIO
    TITLE "5:cjc172_6488"
    INDEX 01 01:24:11
  TRACK 60 AUDIO
    TITLE "0:"
    INDEX 01 01:29:04
